<?xml version="1.0" encoding="UTF-8" standalone="no"?>
<!DOCTYPE svg PUBLIC "-//W3C//DTD SVG 1.1//EN" "http://www.w3.org/Graphics/SVG/1.1/DTD/svg11.dtd">
<svg width="100%" height="100%" viewBox="0 0 108 108" version="1.1" xmlns="http://www.w3.org/2000/svg" xmlns:xlink="http://www.w3.org/1999/xlink" xml:space="preserve" xmlns:serif="http://www.serif.com/" style="fill-rule:evenodd;clip-rule:evenodd;stroke-linejoin:round;stroke-miterlimit:2;">
    <g id="texting-logo" transform="matrix(0.0888889,0,0,0.0888889,6,6)">
        <g transform="matrix(11.25,0,0,11.25,-67.5,-67.5)">
            <rect x="0" y="0" width="108" height="108" style="fill:none;"/>
        </g>
        <g id="dial-beta" transform="matrix(0.789421,0,0,0.789421,-123.114,-123.114)">
            <path d="M198.707,840C198.707,648.839 202.87,564.832 221.569,476.649C227.054,450.78 246.004,375.8 310.902,310.902C375.8,246.004 447.687,227.712 476.67,221.566C564.853,202.867 648.839,198.707 840,198.707C1031.16,198.707 1115.15,202.867 1203.33,221.566C1232.31,227.712 1304.2,246.004 1369.1,310.902C1434,375.8 1452.95,450.78 1458.43,476.649C1477.13,564.832 1481.29,648.839 1481.29,840C1481.29,1031.16 1477.13,1115.17 1458.43,1203.35C1452.95,1229.22 1434,1304.2 1369.1,1369.1C1304.2,1434 1232.31,1452.29 1203.33,1458.43C1115.15,1477.13 1031.16,1481.29 840,1481.29C648.839,1481.29 564.853,1477.13 476.67,1458.43C447.687,1452.29 375.8,1434 310.902,1369.1C246.004,1304.2 227.054,1229.22 221.569,1203.35C202.87,1115.17 198.707,1031.16 198.707,840Z" style="fill:rgb(242,242,243);"/>
        </g>
        <g transform="matrix(35.68,0,0,35.68,-761.137,-316.319)">
            <path d="M40.194,26.106L35.994,26.106L35.994,21.894L40.194,21.894L40.194,17.694L44.406,17.694L44.406,21.894L48.606,21.894L48.606,26.106L44.406,26.106L44.406,30.306L40.194,30.306L40.194,26.106Z" style="fill:rgb(61,60,124);"/>
        </g>
        <g transform="matrix(35.9485,0,0,35.9485,-237.315,-322.764)">
            <path d="M14.244,19.606L10.044,19.606L10.044,15.394L22.656,15.394L22.656,19.606C22.656,19.606 18.456,19.606 18.456,19.606L18.456,32.606L14.244,32.606L14.244,19.606Z" style="fill:rgb(61,60,124);"/>
        </g>
    </g>
</svg>
