<?xml version="1.0" encoding="UTF-8" standalone="no"?>
<!DOCTYPE svg PUBLIC "-//W3C//DTD SVG 1.1//EN" "http://www.w3.org/Graphics/SVG/1.1/DTD/svg11.dtd">
<svg width="100%" height="100%" viewBox="0 0 1080 1080" version="1.1" xmlns="http://www.w3.org/2000/svg" xmlns:xlink="http://www.w3.org/1999/xlink" xml:space="preserve" xmlns:serif="http://www.serif.com/" style="fill-rule:evenodd;clip-rule:evenodd;stroke-linejoin:round;stroke-miterlimit:2;">
    <g id="texting-logo">
        <path id="r90" d="M1080,90L1080,990C1080,1039.67 1039.67,1080 990,1080L90,1080C40.328,1080 0,1039.67 0,990L0,90C0,40.328 40.328,0 90,0L990,0C1039.67,0 1080,40.328 1080,90Z" style="fill:rgb(245,245,245);"/>
        <g transform="matrix(47.9717,0,0,47.9717,-450.899,-611.321)">
            <path d="M14.85,32L14.85,19L10.65,19L10.65,16L22.05,16L22.05,19L17.85,19L17.85,32L14.85,32Z" style="fill:rgb(61,60,124);fill-rule:nonzero;"/>
        </g>
        <g transform="matrix(47.9717,0,0,47.9717,-1282.64,-611.321)">
            <path d="M40.8,29.7L40.8,25.5L36.6,25.5L36.6,22.5L40.8,22.5L40.8,18.3L43.8,18.3L43.8,22.5L48,22.5L48,25.5L43.8,25.5L43.8,29.7L40.8,29.7Z" style="fill:rgb(61,60,124);fill-rule:nonzero;"/>
        </g>
    </g>
</svg>
