<?xml version="1.0" encoding="UTF-8" standalone="no"?>
<!DOCTYPE svg PUBLIC "-//W3C//DTD SVG 1.1//EN" "http://www.w3.org/Graphics/SVG/1.1/DTD/svg11.dtd">
<svg width="100%" height="100%" viewBox="0 0 1296 432" version="1.1" xmlns="http://www.w3.org/2000/svg" xmlns:xlink="http://www.w3.org/1999/xlink" xml:space="preserve" xmlns:serif="http://www.serif.com/" style="fill-rule:evenodd;clip-rule:evenodd;stroke-linejoin:round;stroke-miterlimit:2;">
    <g transform="matrix(0.273233,0,0,0.273233,454.921,39.8772)">
        <g transform="matrix(491.722,0,0,491.722,180,805.623)">
            <path d="M0.586,-0.599L0.586,-0.711L0.013,-0.711L0.013,-0.599L0.229,-0.599L0.229,-0L0.367,-0L0.367,-0.599L0.586,-0.599Z" style="fill:rgb(54,54,54);fill-rule:nonzero;"/>
        </g>
        <g transform="matrix(491.722,0,0,491.722,499.668,805.623)">
            <path d="M0.325,0.01C0.376,0.01 0.421,-0 0.458,-0.02C0.495,-0.04 0.523,-0.062 0.54,-0.086L0.472,-0.16C0.457,-0.139 0.436,-0.124 0.411,-0.114C0.386,-0.104 0.36,-0.099 0.333,-0.099C0.315,-0.099 0.297,-0.102 0.281,-0.108C0.265,-0.114 0.251,-0.122 0.239,-0.133C0.227,-0.143 0.217,-0.155 0.21,-0.167C0.203,-0.181 0.197,-0.198 0.192,-0.219L0.192,-0.22L0.551,-0.22L0.551,-0.278C0.551,-0.317 0.545,-0.352 0.535,-0.384C0.524,-0.416 0.508,-0.444 0.488,-0.466C0.467,-0.489 0.442,-0.507 0.412,-0.519C0.382,-0.532 0.348,-0.538 0.31,-0.538C0.273,-0.538 0.239,-0.531 0.208,-0.518C0.177,-0.505 0.15,-0.486 0.127,-0.462C0.104,-0.438 0.086,-0.409 0.074,-0.375C0.061,-0.342 0.055,-0.306 0.055,-0.265L0.055,-0.246C0.055,-0.21 0.061,-0.177 0.074,-0.146C0.087,-0.115 0.105,-0.088 0.129,-0.065C0.153,-0.042 0.181,-0.024 0.214,-0.01C0.248,0.003 0.285,0.01 0.325,0.01ZM0.309,-0.428C0.326,-0.428 0.341,-0.425 0.354,-0.42C0.368,-0.415 0.379,-0.408 0.388,-0.398C0.397,-0.389 0.404,-0.378 0.41,-0.365C0.415,-0.353 0.417,-0.339 0.417,-0.325L0.417,-0.314L0.195,-0.314C0.198,-0.331 0.203,-0.347 0.209,-0.361C0.216,-0.375 0.224,-0.387 0.234,-0.397C0.243,-0.407 0.254,-0.415 0.267,-0.42C0.28,-0.425 0.294,-0.428 0.309,-0.428Z" style="fill:rgb(54,54,54);fill-rule:nonzero;"/>
        </g>
        <g transform="matrix(491.722,0,0,491.722,819.335,805.623)">
            <path d="M0.311,-0.363L0.196,-0.528L0.05,-0.528L0.227,-0.269L0.043,-0L0.19,-0L0.311,-0.173L0.433,-0L0.579,-0L0.396,-0.269L0.573,-0.528L0.427,-0.528L0.311,-0.363Z" style="fill:rgb(54,54,54);fill-rule:nonzero;"/>
        </g>
        <g transform="matrix(491.722,0,0,491.722,1139,805.623)">
            <path d="M0.318,-0.658L0.182,-0.658L0.182,-0.528L0.062,-0.528L0.062,-0.428L0.182,-0.428L0.182,-0.188C0.182,-0.153 0.187,-0.123 0.196,-0.098C0.205,-0.073 0.218,-0.053 0.235,-0.037C0.251,-0.021 0.271,-0.009 0.295,-0.001C0.319,0.007 0.345,0.01 0.374,0.01C0.389,0.01 0.404,0.009 0.419,0.008C0.435,0.007 0.45,0.005 0.464,0.002C0.479,-0.001 0.492,-0.004 0.505,-0.008C0.518,-0.012 0.529,-0.017 0.538,-0.022L0.525,-0.116C0.519,-0.114 0.511,-0.112 0.502,-0.111C0.494,-0.109 0.485,-0.108 0.475,-0.106C0.465,-0.105 0.454,-0.104 0.443,-0.103C0.433,-0.102 0.422,-0.101 0.412,-0.101C0.397,-0.101 0.384,-0.103 0.373,-0.106C0.361,-0.109 0.351,-0.115 0.343,-0.123C0.335,-0.13 0.329,-0.14 0.324,-0.153C0.32,-0.166 0.318,-0.182 0.318,-0.201L0.318,-0.428L0.515,-0.428L0.515,-0.528L0.318,-0.528L0.318,-0.658Z" style="fill:rgb(54,54,54);fill-rule:nonzero;"/>
        </g>
        <g transform="matrix(491.722,0,0,491.722,1458.67,805.623)">
            <path d="M0.105,-0.528L0.105,-0.417L0.255,-0.417L0.255,-0.11L0.105,-0.11L0.105,-0L0.536,-0L0.536,-0.11L0.393,-0.11L0.393,-0.528L0.105,-0.528ZM0.246,-0.664C0.246,-0.653 0.247,-0.643 0.251,-0.634C0.255,-0.625 0.26,-0.618 0.267,-0.612C0.274,-0.605 0.282,-0.6 0.292,-0.597C0.301,-0.593 0.312,-0.591 0.324,-0.591C0.348,-0.591 0.367,-0.598 0.381,-0.611C0.395,-0.625 0.402,-0.642 0.402,-0.664C0.402,-0.685 0.395,-0.702 0.381,-0.715C0.367,-0.729 0.348,-0.736 0.324,-0.736C0.312,-0.736 0.301,-0.734 0.292,-0.73C0.282,-0.727 0.274,-0.722 0.267,-0.716C0.26,-0.709 0.255,-0.701 0.251,-0.692C0.247,-0.684 0.246,-0.674 0.246,-0.664Z" style="fill:rgb(54,54,54);fill-rule:nonzero;"/>
        </g>
        <g transform="matrix(491.722,0,0,491.722,1778.34,805.623)">
            <path d="M0.069,-0L0.205,-0L0.205,-0.375C0.21,-0.383 0.215,-0.389 0.22,-0.395C0.226,-0.401 0.232,-0.406 0.239,-0.41C0.247,-0.416 0.257,-0.42 0.268,-0.423C0.279,-0.426 0.291,-0.428 0.304,-0.428C0.319,-0.428 0.333,-0.426 0.346,-0.423C0.358,-0.42 0.369,-0.415 0.377,-0.407C0.386,-0.399 0.393,-0.388 0.397,-0.375C0.402,-0.361 0.405,-0.344 0.405,-0.323L0.405,-0L0.541,-0L0.541,-0.325C0.541,-0.364 0.536,-0.396 0.527,-0.423C0.518,-0.45 0.506,-0.472 0.49,-0.489C0.473,-0.506 0.454,-0.519 0.432,-0.526C0.41,-0.534 0.386,-0.538 0.359,-0.538C0.338,-0.538 0.318,-0.535 0.3,-0.529C0.281,-0.523 0.264,-0.515 0.249,-0.504C0.239,-0.497 0.231,-0.49 0.223,-0.482C0.215,-0.474 0.207,-0.465 0.2,-0.455L0.192,-0.528L0.069,-0.528L0.069,-0Z" style="fill:rgb(54,54,54);fill-rule:nonzero;"/>
        </g>
        <g transform="matrix(491.722,0,0,491.722,2098.01,805.623)">
            <path d="M0.055,-0.268L0.055,-0.258C0.055,-0.219 0.06,-0.184 0.07,-0.151C0.08,-0.118 0.094,-0.09 0.113,-0.066C0.131,-0.043 0.154,-0.024 0.18,-0.01C0.206,0.003 0.236,0.01 0.269,0.01C0.285,0.01 0.301,0.008 0.315,0.004C0.33,0.001 0.343,-0.004 0.355,-0.011C0.363,-0.015 0.371,-0.021 0.378,-0.026C0.385,-0.032 0.392,-0.039 0.398,-0.046L0.398,-0.016C0.398,0.002 0.396,0.018 0.391,0.033C0.386,0.047 0.379,0.059 0.369,0.069C0.359,0.08 0.346,0.088 0.33,0.093C0.315,0.099 0.297,0.102 0.277,0.102C0.265,0.102 0.253,0.1 0.241,0.098C0.23,0.095 0.219,0.092 0.208,0.087C0.197,0.082 0.186,0.076 0.176,0.068C0.166,0.06 0.157,0.052 0.148,0.042L0.087,0.124C0.098,0.139 0.112,0.151 0.128,0.162C0.144,0.172 0.161,0.181 0.179,0.188C0.197,0.195 0.215,0.2 0.233,0.203C0.251,0.206 0.268,0.208 0.284,0.208C0.321,0.208 0.355,0.203 0.386,0.193C0.417,0.183 0.443,0.169 0.465,0.149C0.487,0.13 0.504,0.107 0.516,0.079C0.528,0.051 0.535,0.019 0.535,-0.017L0.535,-0.528L0.411,-0.528L0.406,-0.478C0.399,-0.486 0.392,-0.493 0.384,-0.5C0.376,-0.507 0.368,-0.513 0.359,-0.518C0.347,-0.524 0.333,-0.529 0.318,-0.533C0.304,-0.536 0.287,-0.538 0.27,-0.538C0.236,-0.538 0.207,-0.532 0.18,-0.519C0.154,-0.506 0.131,-0.487 0.113,-0.463C0.094,-0.44 0.08,-0.411 0.07,-0.378C0.06,-0.345 0.055,-0.308 0.055,-0.268ZM0.191,-0.258L0.191,-0.268C0.191,-0.29 0.194,-0.311 0.198,-0.33C0.203,-0.35 0.21,-0.367 0.219,-0.381C0.228,-0.396 0.24,-0.407 0.254,-0.415C0.268,-0.424 0.285,-0.428 0.304,-0.428C0.314,-0.428 0.324,-0.427 0.333,-0.425C0.342,-0.423 0.35,-0.42 0.357,-0.417C0.366,-0.412 0.374,-0.407 0.381,-0.4C0.388,-0.393 0.394,-0.385 0.398,-0.376L0.398,-0.152C0.394,-0.144 0.389,-0.137 0.382,-0.13C0.376,-0.124 0.369,-0.118 0.361,-0.114C0.353,-0.11 0.344,-0.106 0.334,-0.104C0.325,-0.102 0.314,-0.101 0.303,-0.101C0.284,-0.101 0.267,-0.105 0.253,-0.113C0.239,-0.121 0.227,-0.132 0.218,-0.146C0.209,-0.16 0.202,-0.177 0.198,-0.196C0.194,-0.215 0.191,-0.236 0.191,-0.258Z" style="fill:rgb(54,54,54);fill-rule:nonzero;"/>
        </g>
    </g>
    <g id="texting-logo" transform="matrix(0.166667,0,0,0.166667,234,126)">
        <g transform="matrix(0.842049,0,0,0.842049,-167.321,-167.321)">
            <path d="M198.707,840.018L198.707,839.982C198.707,648.821 221.566,476.652 221.566,476.652L221.572,476.646L229.723,445.409L240.707,415.025L254.425,385.773L270.762,357.9L289.909,333.612L310.902,310.902L333.612,289.909L357.9,270.762L385.773,254.425L415.025,240.707L445.409,229.723L476.67,221.566C476.67,221.566 648.839,198.707 840,198.707C1031.16,198.707 1203.33,221.566 1203.33,221.566L1234.59,229.723L1264.98,240.707L1294.23,254.425L1322.1,270.762L1346.39,289.909L1369.1,310.902L1390.09,333.612L1409.24,357.9L1425.58,385.773L1439.29,415.025L1450.28,445.409L1458.43,476.646L1458.43,476.652C1458.43,476.652 1481.29,648.821 1481.29,839.982L1481.29,840.018C1481.29,1031.18 1458.43,1203.35 1458.43,1203.35L1458.43,1203.35L1450.28,1234.59L1439.29,1264.98L1425.58,1294.23L1409.24,1322.1L1390.09,1346.39L1369.1,1369.1L1346.39,1390.09L1322.1,1409.24L1294.23,1425.58L1264.98,1439.29L1234.59,1450.28L1203.33,1458.43C1203.33,1458.43 1031.16,1481.29 840,1481.29C648.839,1481.29 476.67,1458.43 476.67,1458.43L445.409,1450.28L415.025,1439.29L385.773,1425.58L357.9,1409.24L333.612,1390.09L310.902,1369.1L289.909,1346.39L270.762,1322.1L254.425,1294.23L240.707,1264.98L229.723,1234.59L221.572,1203.35L221.566,1203.35C221.566,1203.35 198.707,1031.18 198.707,840.018Z" style="fill:rgb(245,245,245);"/>
        </g>
        <g transform="matrix(38.0586,0,0,38.0586,-847.88,-373.407)">
            <path d="M40.194,26.106L35.994,26.106L35.994,21.894L40.194,21.894L40.194,17.694L44.406,17.694L44.406,21.894L48.606,21.894L48.606,26.106L44.406,26.106L44.406,30.306L40.194,30.306L40.194,26.106Z" style="fill:rgb(61,60,124);"/>
        </g>
        <g transform="matrix(38.3451,0,0,38.3451,-289.136,-380.282)">
            <path d="M14.244,19.606L10.044,19.606L10.044,15.394L22.656,15.394L22.656,19.606C22.656,19.606 18.456,19.606 18.456,19.606L18.456,32.606L14.244,32.606L14.244,19.606Z" style="fill:rgb(61,60,124);"/>
        </g>
    </g>
</svg>
