<?xml version="1.0" encoding="UTF-8" standalone="no"?>
<!DOCTYPE svg PUBLIC "-//W3C//DTD SVG 1.1//EN" "http://www.w3.org/Graphics/SVG/1.1/DTD/svg11.dtd">
<svg width="100%" height="100%" viewBox="0 0 1080 1080" version="1.1" xmlns="http://www.w3.org/2000/svg" xmlns:xlink="http://www.w3.org/1999/xlink" xml:space="preserve" xmlns:serif="http://www.serif.com/" style="fill-rule:evenodd;clip-rule:evenodd;stroke-linejoin:round;stroke-miterlimit:2;">
    <g id="texting-logo">
        <g transform="matrix(0.842049,0,0,0.842049,-167.321,-167.321)">
            <path d="M198.707,840.018L198.707,839.982C198.707,648.821 221.566,476.652 221.566,476.652L221.572,476.646L229.723,445.409L240.707,415.025L254.425,385.773L270.762,357.9L289.909,333.612L310.902,310.902L333.612,289.909L357.9,270.762L385.773,254.425L415.025,240.707L445.409,229.723L476.67,221.566C476.67,221.566 648.839,198.707 840,198.707C1031.16,198.707 1203.33,221.566 1203.33,221.566L1234.59,229.723L1264.98,240.707L1294.23,254.425L1322.1,270.762L1346.39,289.909L1369.1,310.902L1390.09,333.612L1409.24,357.9L1425.58,385.773L1439.29,415.025L1450.28,445.409L1458.43,476.646L1458.43,476.652C1458.43,476.652 1481.29,648.821 1481.29,839.982L1481.29,840.018C1481.29,1031.18 1458.43,1203.35 1458.43,1203.35L1458.43,1203.35L1450.28,1234.59L1439.29,1264.98L1425.58,1294.23L1409.24,1322.1L1390.09,1346.39L1369.1,1369.1L1346.39,1390.09L1322.1,1409.24L1294.23,1425.58L1264.98,1439.29L1234.59,1450.28L1203.33,1458.43C1203.33,1458.43 1031.16,1481.29 840,1481.29C648.839,1481.29 476.67,1458.43 476.67,1458.43L445.409,1450.28L415.025,1439.29L385.773,1425.58L357.9,1409.24L333.612,1390.09L310.902,1369.1L289.909,1346.39L270.762,1322.1L254.425,1294.23L240.707,1264.98L229.723,1234.59L221.572,1203.35L221.566,1203.35C221.566,1203.35 198.707,1031.18 198.707,840.018Z" style="fill:rgb(245,245,245);"/>
        </g>
        <g transform="matrix(38.0586,0,0,38.0586,-847.88,-373.407)">
            <path d="M40.194,26.106L35.994,26.106L35.994,21.894L40.194,21.894L40.194,17.694L44.406,17.694L44.406,21.894L48.606,21.894L48.606,26.106L44.406,26.106L44.406,30.306L40.194,30.306L40.194,26.106Z" style="fill:rgb(61,60,124);"/>
        </g>
        <g transform="matrix(38.3451,0,0,38.3451,-289.136,-380.282)">
            <path d="M14.244,19.606L10.044,19.606L10.044,15.394L22.656,15.394L22.656,19.606C22.656,19.606 18.456,19.606 18.456,19.606L18.456,32.606L14.244,32.606L14.244,19.606Z" style="fill:rgb(61,60,124);"/>
        </g>
    </g>
</svg>
