<?xml version="1.0" encoding="UTF-8" standalone="no"?>
<!DOCTYPE svg PUBLIC "-//W3C//DTD SVG 1.1//EN" "http://www.w3.org/Graphics/SVG/1.1/DTD/svg11.dtd">
<svg width="100%" height="100%" viewBox="0 0 1080 1080" version="1.1" xmlns="http://www.w3.org/2000/svg" xmlns:xlink="http://www.w3.org/1999/xlink" xml:space="preserve" xmlns:serif="http://www.serif.com/" style="fill-rule:evenodd;clip-rule:evenodd;stroke-linejoin:round;stroke-miterlimit:2;">
    <g id="texting-logo">
        <rect x="0" y="0" width="1080" height="1080" style="fill:none;"/>
        <g transform="matrix(0.888889,0,0,0.888889,60,60)">
            <path d="M1080,445.5L1080,634.5L242.618,1080L0,1080L0,827.288L540,540L0,252.712L0,0L242.618,0L1080,445.5Z" style="fill:rgb(181,204,57);"/>
        </g>
        <g transform="matrix(2.09679,0,0,2.09679,-337.922,-1202.97)">
            <g transform="matrix(238.46,0,0,238.46,180,805.623)">
                <path d="M0.332,-0.59L0.499,-0.59L0.499,-0.7L0.024,-0.7L0.024,-0.59L0.192,-0.59L0.192,-0L0.332,-0L0.332,-0.59Z" style="fill-rule:nonzero;"/>
            </g>
            <g transform="matrix(238.46,0,0,238.46,295.176,805.623)">
                <path d="M0.443,-0.11L0.194,-0.11L0.194,-0.305L0.423,-0.305L0.423,-0.413L0.194,-0.413L0.194,-0.59L0.433,-0.59L0.433,-0.7L0.054,-0.7L0.054,-0L0.443,-0L0.443,-0.11Z" style="fill-rule:nonzero;"/>
            </g>
            <g transform="matrix(238.46,0,0,238.46,402.722,805.623)">
                <path d="M0.246,-0.153L0.289,-0.252L0.293,-0.252L0.336,-0.153L0.405,-0L0.561,-0L0.385,-0.36L0.551,-0.7L0.401,-0.7L0.34,-0.567L0.297,-0.468L0.293,-0.468L0.25,-0.567L0.19,-0.7L0.035,-0.7L0.201,-0.36L0.025,-0L0.176,-0L0.246,-0.153Z" style="fill-rule:nonzero;"/>
            </g>
            <g transform="matrix(238.46,0,0,238.46,532.682,805.623)">
                <path d="M0.332,-0.59L0.499,-0.59L0.499,-0.7L0.024,-0.7L0.024,-0.59L0.192,-0.59L0.192,-0L0.332,-0L0.332,-0.59Z" style="fill-rule:nonzero;"/>
            </g>
            <g transform="matrix(238.46,0,0,238.46,180,1020.24)">
                <rect x="0.072" y="-0.7" width="0.14" height="0.7" style="fill-rule:nonzero;"/>
            </g>
            <g transform="matrix(238.46,0,0,238.46,239.615,1020.24)">
                <path d="M0.185,-0.355L0.183,-0.59L0.187,-0.59L0.24,-0.405L0.36,-0L0.585,-0L0.585,-0.7L0.454,-0.7L0.454,-0.345L0.456,-0.11L0.452,-0.11L0.399,-0.295L0.279,-0.7L0.054,-0.7L0.054,-0L0.185,-0L0.185,-0.355Z" style="fill-rule:nonzero;"/>
            </g>
            <g transform="matrix(238.46,0,0,238.46,381.022,1020.24)">
                <path d="M0.327,0.015C0.412,0.015 0.489,-0.001 0.56,-0.034L0.56,-0.384L0.33,-0.384L0.33,-0.274L0.423,-0.274L0.423,-0.114C0.394,-0.103 0.36,-0.098 0.331,-0.098C0.275,-0.098 0.239,-0.119 0.219,-0.155C0.202,-0.186 0.198,-0.224 0.198,-0.35C0.198,-0.484 0.204,-0.516 0.22,-0.548C0.239,-0.583 0.268,-0.603 0.316,-0.603C0.377,-0.603 0.413,-0.574 0.413,-0.518L0.562,-0.518C0.554,-0.642 0.458,-0.716 0.314,-0.716C0.207,-0.716 0.129,-0.671 0.086,-0.599C0.057,-0.547 0.048,-0.49 0.048,-0.35C0.048,-0.209 0.056,-0.154 0.087,-0.101C0.13,-0.028 0.206,0.015 0.327,0.015Z" style="fill-rule:nonzero;"/>
            </g>
        </g>
    </g>
</svg>
